<?xml version="1.0" encoding="UTF-8"?>
<!DOCTYPE svg PUBLIC "-//W3C//DTD SVG 1.1//EN" "http://www.w3.org/Graphics/SVG/1.1/DTD/svg11.dtd">
<svg xmlns="http://www.w3.org/2000/svg" version="1.1" width="163px" height="40px" style="shape-rendering:geometricPrecision; text-rendering:geometricPrecision; image-rendering:optimizeQuality; fill-rule:evenodd; clip-rule:evenodd" xmlns:xlink="http://www.w3.org/1999/xlink">
<g><path style="opacity:0.713" fill="#fbfbfb" d="M 77.5,-0.5 C 80.5,-0.5 83.5,-0.5 86.5,-0.5C 87.4978,10.1531 88.4978,10.1531 89.5,-0.5C 91.5,-0.5 93.5,-0.5 95.5,-0.5C 96.7989,8.66631 97.4656,8.66631 97.5,-0.5C 100.833,-0.5 104.167,-0.5 107.5,-0.5C 107.5,5.83333 107.5,12.1667 107.5,18.5C 106.167,18.5 104.833,18.5 103.5,18.5C 103.541,14.7566 102.874,14.5899 101.5,18C 99.5377,17.8593 97.7043,18.026 96,18.5C 94.2345,17.7679 93.0678,16.4346 92.5,14.5C 92.4455,15.5301 92.1122,16.6967 91.5,18C 89.5665,18.7826 88.0665,18.2826 87,16.5C 84.5027,18.4782 81.6693,18.9782 78.5,18C 77.5236,11.9242 77.1903,5.75757 77.5,-0.5 Z"/></g>
<g><path style="opacity:0.9" fill="#f7f7f7" d="M 108.5,-0.5 C 109.5,-0.5 110.5,-0.5 111.5,-0.5C 110.88,5.92619 111.547,11.9262 113.5,17.5C 112.116,18.8009 110.616,18.8009 109,17.5C 108.501,11.5092 108.334,5.50924 108.5,-0.5 Z"/></g>
<g><path style="opacity:0.999" fill="#fa4602" d="M 62.5,0.5 C 61.3053,12.4414 61.3053,24.4414 62.5,36.5C 61.7839,34.4437 61.1172,32.277 60.5,30C 56.5941,27.6125 55.5941,28.4458 57.5,32.5C 56.1007,33.8897 54.4341,34.8897 52.5,35.5C 51.391,35.5569 50.391,35.8902 49.5,36.5C 49.2367,32.3998 49.5701,28.3998 50.5,24.5C 51.5,23.1667 52.5,21.8333 53.5,20.5C 54.1098,19.609 54.4431,18.609 54.5,17.5C 54.9887,16.0048 55.6554,14.6715 56.5,13.5C 57.404,12.791 57.7373,11.791 57.5,10.5C 53.1667,10.5 48.8333,10.5 44.5,10.5C 44.5,7.16667 44.5,3.83333 44.5,0.5C 50.5,0.5 56.5,0.5 62.5,0.5 Z"/></g>
<g><path style="opacity:1" fill="#fe3401" d="M 62.5,0.5 C 65.8333,0.5 69.1667,0.5 72.5,0.5C 72.5,13.1667 72.5,25.8333 72.5,38.5C 68.6707,39.069 65.3373,38.4023 62.5,36.5C 61.3053,24.4414 61.3053,12.4414 62.5,0.5 Z"/></g>
<g><path style="opacity:0.632" fill="#b1b1b0" d="M 111.5,-0.5 C 112.167,-0.5 112.833,-0.5 113.5,-0.5C 113.5,5.5 113.5,11.5 113.5,17.5C 111.547,11.9262 110.88,5.92619 111.5,-0.5 Z"/></g>
<g><path style="opacity:0.354" fill="#c33010" d="M 43.5,-0.5 C 53.8333,-0.5 64.1667,-0.5 74.5,-0.5C 74.5,12.5 74.5,25.5 74.5,38.5C 73.8333,38.5 73.1667,38.5 72.5,38.5C 72.5,25.8333 72.5,13.1667 72.5,0.5C 69.1667,0.5 65.8333,0.5 62.5,0.5C 56.5,0.5 50.5,0.5 44.5,0.5C 44.5,3.83333 44.5,7.16667 44.5,10.5C 48.8333,10.5 53.1667,10.5 57.5,10.5C 57.7373,11.791 57.404,12.791 56.5,13.5C 52.6273,11.5698 48.294,10.9031 43.5,11.5C 43.5,7.5 43.5,3.5 43.5,-0.5 Z"/></g>
<g><path style="opacity:0.008" fill="#3e0b05" d="M 54.5,17.5 C 54.4431,18.609 54.1098,19.609 53.5,20.5C 53.1667,20.5 52.8333,20.5 52.5,20.5C 52.427,18.9731 53.0937,17.9731 54.5,17.5 Z"/></g>
<g><path style="opacity:0.658" fill="#fbfbfa" d="M 105.5,24.5 C 105.5,23.1667 105.5,21.8333 105.5,20.5C 110.648,19.9264 115.482,20.593 120,22.5C 125.836,18.847 128.669,20.5137 128.5,27.5C 124.867,27.443 124.7,28.443 128,30.5C 128.736,33.592 128.569,36.592 127.5,39.5C 125.167,39.5 122.833,39.5 120.5,39.5C 120.167,38.1667 119.833,38.1667 119.5,39.5C 117.833,39.5 116.167,39.5 114.5,39.5C 114.666,34.4889 114.499,29.4889 114,24.5C 112.558,29.3088 112.058,34.3088 112.5,39.5C 109.167,39.5 105.833,39.5 102.5,39.5C 102.395,34.3402 101.728,34.3402 100.5,39.5C 98.1667,39.5 95.8333,39.5 93.5,39.5C 93.1667,38.1667 92.8333,38.1667 92.5,39.5C 90.8333,39.5 89.1667,39.5 87.5,39.5C 87.1667,36.8333 86.8333,36.8333 86.5,39.5C 84.1667,39.5 81.8333,39.5 79.5,39.5C 77.3328,34.1489 76.9994,28.6489 78.5,23C 81.6348,19.4999 84.4682,19.6666 87,23.5C 87.4828,22.552 87.6495,21.552 87.5,20.5C 90.6074,20.3512 93.6074,20.8512 96.5,22C 97.2638,24.0693 97.7638,26.236 98,28.5C 98.567,25.8323 99.067,23.1656 99.5,20.5C 101.167,20.5 102.833,20.5 104.5,20.5C 104.232,22.099 104.566,23.4324 105.5,24.5 Z M 105.5,24.5 C 106.117,24.6107 106.617,24.944 107,25.5C 107.667,28.5 107.667,31.5 107,34.5C 106.174,31.2072 105.674,27.8738 105.5,24.5 Z M 122.5,32.5 C 121.5,32.5 120.5,32.5 119.5,32.5C 119.479,27.6341 120.479,27.6341 122.5,32.5 Z"/></g>
<g><path style="opacity:0.522" fill="#ae3e0e" d="M 52.5,20.5 C 52.8333,20.5 53.1667,20.5 53.5,20.5C 52.5,21.8333 51.5,23.1667 50.5,24.5C 47.7146,25.3055 44.8813,25.9722 42,26.5C 40.6153,26.4857 39.4486,26.1524 38.5,25.5C 43.7848,25.3213 48.4515,23.6546 52.5,20.5 Z"/></g>
<g><path style="opacity:1" fill="#f95d03" d="M 50.5,24.5 C 49.5701,28.3998 49.2367,32.3998 49.5,36.5C 48.6618,36.8417 48.3284,37.5084 48.5,38.5C 48.1667,38.5 47.8333,38.5 47.5,38.5C 47.0831,37.8761 46.4164,37.5427 45.5,37.5C 44.2867,37.7472 43.62,38.4138 43.5,39.5C 42.8333,39.5 42.1667,39.5 41.5,39.5C 40.4324,38.5655 39.099,38.2322 37.5,38.5C 37.5,34.1667 37.5,29.8333 37.5,25.5C 37.8333,25.5 38.1667,25.5 38.5,25.5C 39.4486,26.1524 40.6153,26.4857 42,26.5C 44.8813,25.9722 47.7146,25.3055 50.5,24.5 Z"/></g>
<g><path style="opacity:0.369" fill="#83300e" d="M 37.5,25.5 C 37.5,29.8333 37.5,34.1667 37.5,38.5C 39.099,38.2322 40.4324,38.5655 41.5,39.5C 39.8333,39.5 38.1667,39.5 36.5,39.5C 36.1805,34.6367 36.5139,29.97 37.5,25.5 Z"/></g>
<g><path style="opacity:0.624" fill="#9c260d" d="M 62.5,36.5 C 65.3373,38.4023 68.6707,39.069 72.5,38.5C 73.1667,38.5 73.8333,38.5 74.5,38.5C 74.5,38.8333 74.5,39.1667 74.5,39.5C 70.1667,39.5 65.8333,39.5 61.5,39.5C 60.7904,37.2537 60.2904,34.9204 60,32.5C 59.2303,31.4019 58.397,31.4019 57.5,32.5C 55.5941,28.4458 56.5941,27.6125 60.5,30C 61.1172,32.277 61.7839,34.4437 62.5,36.5 Z"/></g>
<g><path style="opacity:0.016" fill="#7b280c" d="M 52.5,35.5 C 51.7886,37.2014 50.4553,38.2014 48.5,38.5C 48.3284,37.5084 48.6618,36.8417 49.5,36.5C 50.391,35.8902 51.391,35.5569 52.5,35.5 Z"/></g>
<g><path style="opacity:0.047" fill="#852e0e" d="M 47.5,38.5 C 46.8333,38.5 46.5,38.8333 46.5,39.5C 45.5,39.5 44.5,39.5 43.5,39.5C 43.62,38.4138 44.2867,37.7472 45.5,37.5C 46.4164,37.5427 47.0831,37.8761 47.5,38.5 Z"/></g>
</svg>
